<?xml version="1.0" standalone="no"?>
<!DOCTYPE svg PUBLIC "-//W3C//DTD SVG 20010904//EN"
 "http://www.w3.org/TR/2001/REC-SVG-20010904/DTD/svg10.dtd">
<svg version="1.0" xmlns="http://www.w3.org/2000/svg"
 width="400.000000pt" height="400.000000pt" viewBox="0 0 400.000000 400.000000"
 preserveAspectRatio="xMidYMid meet">
<metadata>
Created by potrace 1.11, written by Peter Selinger 2001-2013
</metadata>
<g transform="translate(0.000000,400.000000) scale(0.100000,-0.100000)"
fill="#000000" stroke="none">
<path d="M0 2000 l0 -2000 2000 0 2000 0 0 2000 0 2000 -2000 0 -2000 0 0
-2000z m2070 955 c52 -9 142 -22 199 -30 57 -7 107 -17 112 -22 6 -6 5 -48 -1
-104 -5 -52 -10 -146 -10 -209 0 -133 -6 -162 -29 -158 -12 3 -18 21 -23 78
-9 88 -52 185 -100 225 -195 164 -663 192 -938 57 -88 -43 -186 -135 -242
-228 -82 -134 -126 -345 -115 -554 20 -411 289 -748 675 -846 78 -20 119 -24
236 -24 203 0 314 29 404 105 37 31 76 108 100 196 11 42 22 64 32 64 21 0 17
-121 -9 -252 -25 -128 -37 -153 -81 -175 -84 -41 -182 -53 -450 -53 -269 0
-341 8 -485 57 -328 109 -562 367 -632 698 -25 119 -25 346 1 455 93 398 377
667 766 724 41 6 86 13 100 15 55 10 400 -4 490 -19z m1188 -312 c-2 -11 -14
-19 -28 -21 -62 -6 -101 -24 -113 -50 -9 -20 -13 -184 -15 -617 -3 -567 4
-770 27 -814 13 -24 53 -40 126 -49 43 -5 60 -11 60 -22 0 -13 -39 -15 -290
-15 -250 0 -290 2 -290 15 0 10 16 17 50 22 60 8 81 30 92 96 4 26 8 344 8
707 0 514 -3 665 -13 682 -11 20 -40 33 -114 48 -16 3 -28 12 -28 20 0 13 38
15 266 15 247 0 265 -1 262 -17z"/>
</g>
</svg>
